<mxfile host="app.diagrams.net" modified="2024-04-06T19:55:05.575Z" agent="Mozilla/5.0 (Macintosh; Intel Mac OS X 10_15_7) AppleWebKit/605.1.15 (KHTML, like Gecko) Version/17.2.1 Safari/605.1.15" etag="tTvxH7x5PbavwbfWCrRV" version="24.2.2" type="github">
  <diagram name="Page-1" id="wxCbchn2Chx5s0cPIJcQ">
    <mxGraphModel dx="1570" dy="1033" grid="0" gridSize="10" guides="1" tooltips="1" connect="1" arrows="1" fold="1" page="0" pageScale="1" pageWidth="827" pageHeight="1169" math="0" shadow="0">
      <root>
        <mxCell id="0" />
        <mxCell id="1" parent="0" />
        <mxCell id="KK3T090K7q1Hy_3dpbnI-68" style="edgeStyle=orthogonalEdgeStyle;rounded=0;orthogonalLoop=1;jettySize=auto;html=1;exitX=1;exitY=0.5;exitDx=0;exitDy=0;exitPerimeter=0;entryX=0;entryY=0.5;entryDx=0;entryDy=0;curved=1;" edge="1" parent="1" source="KK3T090K7q1Hy_3dpbnI-1" target="KK3T090K7q1Hy_3dpbnI-7">
          <mxGeometry relative="1" as="geometry" />
        </mxCell>
        <mxCell id="KK3T090K7q1Hy_3dpbnI-69" style="edgeStyle=orthogonalEdgeStyle;rounded=0;orthogonalLoop=1;jettySize=auto;html=1;exitX=1;exitY=0.5;exitDx=0;exitDy=0;exitPerimeter=0;entryX=0;entryY=0.25;entryDx=0;entryDy=0;curved=1;" edge="1" parent="1" source="KK3T090K7q1Hy_3dpbnI-1" target="KK3T090K7q1Hy_3dpbnI-9">
          <mxGeometry relative="1" as="geometry" />
        </mxCell>
        <mxCell id="KK3T090K7q1Hy_3dpbnI-70" style="edgeStyle=orthogonalEdgeStyle;rounded=0;orthogonalLoop=1;jettySize=auto;html=1;exitX=1;exitY=0.5;exitDx=0;exitDy=0;exitPerimeter=0;entryX=0;entryY=0.5;entryDx=0;entryDy=0;curved=1;" edge="1" parent="1" source="KK3T090K7q1Hy_3dpbnI-1" target="KK3T090K7q1Hy_3dpbnI-10">
          <mxGeometry relative="1" as="geometry">
            <Array as="points">
              <mxPoint x="360" y="479" />
              <mxPoint x="360" y="548" />
            </Array>
          </mxGeometry>
        </mxCell>
        <mxCell id="KK3T090K7q1Hy_3dpbnI-1" value="Raw documents" style="shape=cylinder3;whiteSpace=wrap;html=1;boundedLbl=1;backgroundOutline=1;size=15;" vertex="1" parent="1">
          <mxGeometry x="221" y="438.75" width="110" height="80" as="geometry" />
        </mxCell>
        <mxCell id="KK3T090K7q1Hy_3dpbnI-2" value="Annotator" style="swimlane;whiteSpace=wrap;html=1;" vertex="1" parent="1">
          <mxGeometry x="380" y="370" width="340" height="215" as="geometry" />
        </mxCell>
        <mxCell id="KK3T090K7q1Hy_3dpbnI-13" style="edgeStyle=orthogonalEdgeStyle;rounded=0;orthogonalLoop=1;jettySize=auto;html=1;exitX=1;exitY=0.5;exitDx=0;exitDy=0;entryX=0;entryY=0.5;entryDx=0;entryDy=0;curved=1;" edge="1" parent="KK3T090K7q1Hy_3dpbnI-2" source="KK3T090K7q1Hy_3dpbnI-7" target="KK3T090K7q1Hy_3dpbnI-12">
          <mxGeometry relative="1" as="geometry" />
        </mxCell>
        <mxCell id="KK3T090K7q1Hy_3dpbnI-7" value="IsNew&lt;div&gt;Classification&lt;/div&gt;" style="shape=parallelogram;perimeter=parallelogramPerimeter;whiteSpace=wrap;html=1;fixedSize=1;" vertex="1" parent="KK3T090K7q1Hy_3dpbnI-2">
          <mxGeometry x="13" y="35" width="134" height="45" as="geometry" />
        </mxCell>
        <mxCell id="KK3T090K7q1Hy_3dpbnI-16" style="edgeStyle=orthogonalEdgeStyle;rounded=0;orthogonalLoop=1;jettySize=auto;html=1;exitX=1;exitY=0.5;exitDx=0;exitDy=0;entryX=0;entryY=0.5;entryDx=0;entryDy=0;" edge="1" parent="KK3T090K7q1Hy_3dpbnI-2" source="KK3T090K7q1Hy_3dpbnI-9" target="KK3T090K7q1Hy_3dpbnI-12">
          <mxGeometry relative="1" as="geometry" />
        </mxCell>
        <mxCell id="KK3T090K7q1Hy_3dpbnI-9" value="Category&lt;div&gt;Detection&lt;/div&gt;" style="shape=parallelogram;perimeter=parallelogramPerimeter;whiteSpace=wrap;html=1;fixedSize=1;" vertex="1" parent="KK3T090K7q1Hy_3dpbnI-2">
          <mxGeometry x="10" y="95" width="134" height="45" as="geometry" />
        </mxCell>
        <mxCell id="KK3T090K7q1Hy_3dpbnI-15" style="edgeStyle=orthogonalEdgeStyle;rounded=0;orthogonalLoop=1;jettySize=auto;html=1;exitX=1;exitY=0.5;exitDx=0;exitDy=0;entryX=0;entryY=0.5;entryDx=0;entryDy=0;curved=1;" edge="1" parent="KK3T090K7q1Hy_3dpbnI-2" source="KK3T090K7q1Hy_3dpbnI-10" target="KK3T090K7q1Hy_3dpbnI-12">
          <mxGeometry relative="1" as="geometry" />
        </mxCell>
        <mxCell id="KK3T090K7q1Hy_3dpbnI-10" value="Document&lt;div&gt;Text Processing&lt;/div&gt;" style="shape=parallelogram;perimeter=parallelogramPerimeter;whiteSpace=wrap;html=1;fixedSize=1;" vertex="1" parent="KK3T090K7q1Hy_3dpbnI-2">
          <mxGeometry x="10" y="155" width="134" height="45" as="geometry" />
        </mxCell>
        <mxCell id="KK3T090K7q1Hy_3dpbnI-12" value="Annotated&lt;div&gt;document&lt;/div&gt;" style="rounded=0;whiteSpace=wrap;html=1;" vertex="1" parent="KK3T090K7q1Hy_3dpbnI-2">
          <mxGeometry x="210" y="87.5" width="120" height="60" as="geometry" />
        </mxCell>
        <mxCell id="KK3T090K7q1Hy_3dpbnI-5" value="Annotated documents" style="shape=cylinder3;whiteSpace=wrap;html=1;boundedLbl=1;backgroundOutline=1;size=15;" vertex="1" parent="1">
          <mxGeometry x="775" y="270" width="110" height="80" as="geometry" />
        </mxCell>
        <mxCell id="KK3T090K7q1Hy_3dpbnI-18" style="edgeStyle=orthogonalEdgeStyle;rounded=0;orthogonalLoop=1;jettySize=auto;html=1;exitX=1;exitY=0.5;exitDx=0;exitDy=0;entryX=0;entryY=0.5;entryDx=0;entryDy=0;entryPerimeter=0;curved=1;startArrow=classic;startFill=1;" edge="1" parent="1" source="KK3T090K7q1Hy_3dpbnI-12" target="KK3T090K7q1Hy_3dpbnI-5">
          <mxGeometry relative="1" as="geometry" />
        </mxCell>
        <mxCell id="KK3T090K7q1Hy_3dpbnI-36" value="Is Stored" style="edgeLabel;html=1;align=center;verticalAlign=middle;resizable=0;points=[];" vertex="1" connectable="0" parent="KK3T090K7q1Hy_3dpbnI-18">
          <mxGeometry x="0.2948" y="-2" relative="1" as="geometry">
            <mxPoint x="1" y="-23" as="offset" />
          </mxGeometry>
        </mxCell>
        <mxCell id="KK3T090K7q1Hy_3dpbnI-23" value="Clusterer" style="swimlane;whiteSpace=wrap;html=1;startSize=23;" vertex="1" parent="1">
          <mxGeometry x="775" y="370" width="340" height="215" as="geometry">
            <mxRectangle x="775" y="370" width="90" height="30" as="alternateBounds" />
          </mxGeometry>
        </mxCell>
        <mxCell id="KK3T090K7q1Hy_3dpbnI-45" style="edgeStyle=orthogonalEdgeStyle;rounded=0;orthogonalLoop=1;jettySize=auto;html=1;exitX=0.5;exitY=1;exitDx=0;exitDy=0;entryX=0.5;entryY=0;entryDx=0;entryDy=0;" edge="1" parent="KK3T090K7q1Hy_3dpbnI-23" source="KK3T090K7q1Hy_3dpbnI-25" target="KK3T090K7q1Hy_3dpbnI-44">
          <mxGeometry relative="1" as="geometry" />
        </mxCell>
        <mxCell id="KK3T090K7q1Hy_3dpbnI-25" value="SLINK Aglomerative&lt;div&gt;Clustering&lt;/div&gt;" style="shape=parallelogram;perimeter=parallelogramPerimeter;whiteSpace=wrap;html=1;fixedSize=1;" vertex="1" parent="KK3T090K7q1Hy_3dpbnI-23">
          <mxGeometry x="20" y="40" width="147" height="60" as="geometry" />
        </mxCell>
        <mxCell id="KK3T090K7q1Hy_3dpbnI-30" value="Documents Cluster" style="rounded=0;whiteSpace=wrap;html=1;" vertex="1" parent="KK3T090K7q1Hy_3dpbnI-23">
          <mxGeometry x="210" y="77.5" width="120" height="60" as="geometry" />
        </mxCell>
        <mxCell id="KK3T090K7q1Hy_3dpbnI-46" style="edgeStyle=orthogonalEdgeStyle;rounded=0;orthogonalLoop=1;jettySize=auto;html=1;exitX=1;exitY=0.5;exitDx=0;exitDy=0;entryX=0;entryY=0.5;entryDx=0;entryDy=0;curved=1;" edge="1" parent="KK3T090K7q1Hy_3dpbnI-23" source="KK3T090K7q1Hy_3dpbnI-44" target="KK3T090K7q1Hy_3dpbnI-30">
          <mxGeometry relative="1" as="geometry" />
        </mxCell>
        <mxCell id="KK3T090K7q1Hy_3dpbnI-44" value="&lt;div&gt;Cluster&lt;/div&gt;&lt;div&gt;Summarisation&lt;/div&gt;" style="shape=parallelogram;perimeter=parallelogramPerimeter;whiteSpace=wrap;html=1;fixedSize=1;" vertex="1" parent="KK3T090K7q1Hy_3dpbnI-23">
          <mxGeometry x="20" y="140" width="147" height="60" as="geometry" />
        </mxCell>
        <mxCell id="KK3T090K7q1Hy_3dpbnI-37" style="edgeStyle=orthogonalEdgeStyle;rounded=0;orthogonalLoop=1;jettySize=auto;html=1;exitX=1;exitY=0.5;exitDx=0;exitDy=0;entryX=0;entryY=0.5;entryDx=0;entryDy=0;curved=1;" edge="1" parent="1" source="KK3T090K7q1Hy_3dpbnI-12" target="KK3T090K7q1Hy_3dpbnI-25">
          <mxGeometry relative="1" as="geometry" />
        </mxCell>
        <mxCell id="KK3T090K7q1Hy_3dpbnI-47" value="&lt;font style=&quot;font-size: 20px;&quot;&gt;Ranker&lt;/font&gt;" style="shape=process;whiteSpace=wrap;html=1;backgroundOutline=1;" vertex="1" parent="1">
          <mxGeometry x="1156" y="436.25" width="170" height="82.5" as="geometry" />
        </mxCell>
        <mxCell id="KK3T090K7q1Hy_3dpbnI-48" style="edgeStyle=orthogonalEdgeStyle;rounded=0;orthogonalLoop=1;jettySize=auto;html=1;exitX=1;exitY=0.5;exitDx=0;exitDy=0;entryX=0;entryY=0.5;entryDx=0;entryDy=0;" edge="1" parent="1" source="KK3T090K7q1Hy_3dpbnI-30" target="KK3T090K7q1Hy_3dpbnI-47">
          <mxGeometry relative="1" as="geometry" />
        </mxCell>
        <mxCell id="KK3T090K7q1Hy_3dpbnI-49" value="" style="shape=note;whiteSpace=wrap;html=1;backgroundOutline=1;darkOpacity=0.05;size=12;" vertex="1" parent="1">
          <mxGeometry x="1220" y="550" width="40" height="50" as="geometry" />
        </mxCell>
        <mxCell id="KK3T090K7q1Hy_3dpbnI-50" value="" style="shape=note;whiteSpace=wrap;html=1;backgroundOutline=1;darkOpacity=0.05;size=12;" vertex="1" parent="1">
          <mxGeometry x="1230" y="560" width="40" height="50" as="geometry" />
        </mxCell>
        <mxCell id="KK3T090K7q1Hy_3dpbnI-61" style="edgeStyle=orthogonalEdgeStyle;rounded=0;orthogonalLoop=1;jettySize=auto;html=1;exitX=0;exitY=1;exitDx=0;exitDy=0;exitPerimeter=0;entryX=0.5;entryY=0;entryDx=0;entryDy=0;" edge="1" parent="1" source="KK3T090K7q1Hy_3dpbnI-51" target="KK3T090K7q1Hy_3dpbnI-60">
          <mxGeometry relative="1" as="geometry" />
        </mxCell>
        <mxCell id="KK3T090K7q1Hy_3dpbnI-51" value="" style="shape=note;whiteSpace=wrap;html=1;backgroundOutline=1;darkOpacity=0.05;size=12;" vertex="1" parent="1">
          <mxGeometry x="1240" y="570" width="40" height="50" as="geometry" />
        </mxCell>
        <mxCell id="KK3T090K7q1Hy_3dpbnI-52" value="Json" style="shape=note;whiteSpace=wrap;html=1;backgroundOutline=1;darkOpacity=0.05;size=12;" vertex="1" parent="1">
          <mxGeometry x="1250" y="580" width="40" height="50" as="geometry" />
        </mxCell>
        <mxCell id="KK3T090K7q1Hy_3dpbnI-56" style="edgeStyle=orthogonalEdgeStyle;rounded=0;orthogonalLoop=1;jettySize=auto;html=1;exitX=0.5;exitY=1;exitDx=0;exitDy=0;entryX=0.5;entryY=0;entryDx=0;entryDy=0;entryPerimeter=0;" edge="1" parent="1" source="KK3T090K7q1Hy_3dpbnI-47" target="KK3T090K7q1Hy_3dpbnI-49">
          <mxGeometry relative="1" as="geometry" />
        </mxCell>
        <mxCell id="KK3T090K7q1Hy_3dpbnI-65" style="edgeStyle=orthogonalEdgeStyle;rounded=0;orthogonalLoop=1;jettySize=auto;html=1;exitX=1;exitY=0.5;exitDx=0;exitDy=0;startArrow=classic;startFill=1;" edge="1" parent="1" source="KK3T090K7q1Hy_3dpbnI-60" target="KK3T090K7q1Hy_3dpbnI-62">
          <mxGeometry relative="1" as="geometry" />
        </mxCell>
        <mxCell id="KK3T090K7q1Hy_3dpbnI-60" value="&lt;span style=&quot;font-size: 20px;&quot;&gt;Web&lt;/span&gt;&lt;br&gt;&lt;div&gt;&lt;font style=&quot;font-size: 20px;&quot;&gt;Interface&lt;/font&gt;&lt;/div&gt;" style="shape=process;whiteSpace=wrap;html=1;backgroundOutline=1;" vertex="1" parent="1">
          <mxGeometry x="1155" y="650" width="170" height="82.5" as="geometry" />
        </mxCell>
        <mxCell id="KK3T090K7q1Hy_3dpbnI-62" value="User" style="shape=umlActor;verticalLabelPosition=bottom;verticalAlign=top;html=1;outlineConnect=0;" vertex="1" parent="1">
          <mxGeometry x="1390" y="650" width="50" height="81" as="geometry" />
        </mxCell>
      </root>
    </mxGraphModel>
  </diagram>
</mxfile>
